<?xml version="1.0" encoding="utf-8"?><!-- Uploaded to: SVG Repo, www.svgrepo.com, Generator: SVG Repo Mixer Tools -->
<svg fill="#000000" width="800px" height="800px" viewBox="-25.61 0 114.372 114.372" xmlns="http://www.w3.org/2000/svg">
  <path id="Path_4096" data-name="Path 4096" d="M573.054,340.39a5.046,5.046,0,0,0,2.669,4.452,5.045,5.045,0,1,0,8.426,5.186,5.047,5.047,0,1,0,8.483-5.128,5.047,5.047,0,0,0-2.259-9.562,4.865,4.865,0,0,0-.6.04,5.049,5.049,0,0,0-10.1.057c0,.054.007.107.008.161a5.041,5.041,0,0,0-6.633,4.794Zm10.093-.161a5.053,5.053,0,0,0,1.583.256,4.87,4.87,0,0,0,.6-.038,5.024,5.024,0,0,0,1.3,3.316,5.061,5.061,0,0,0-2.473,2.76,5.056,5.056,0,0,0-2.348-2.7,5.03,5.03,0,0,0,1.355-3.433C583.156,340.336,583.149,340.283,583.147,340.229Zm44.076-51.582a.959.959,0,0,1-.959.959h-.318a.959.959,0,0,1,0-1.918h.318A.959.959,0,0,1,627.223,288.647Zm-34.206,0a.959.959,0,0,1,.959-.959h.32a.959.959,0,0,1,0,1.918h-.32A.959.959,0,0,1,593.017,288.647Zm26.215,0a.959.959,0,0,1-.959.959h-.32a.959.959,0,0,1,0-1.918h.32A.959.959,0,0,1,619.232,288.647Zm-15.986,0a.959.959,0,0,1-.958.959h-.319a.959.959,0,0,1,0-1.918h.319A.959.959,0,0,1,603.246,288.647Zm7.993,0a.959.959,0,0,1-.959.959h-.32a.959.959,0,1,1,0-1.918h.32A.959.959,0,0,1,611.239,288.647Zm-18.128-3.1a.892.892,0,0,1,.7-1.1l.158-.029a.959.959,0,0,1,.34,1.888.994.994,0,0,1-.179.016A1.018,1.018,0,0,1,593.111,285.543Zm7.683-1.379a.96.96,0,0,1,.777-1.113l.317-.056a.958.958,0,1,1,.336,1.887l-.317.057a.879.879,0,0,1-.17.015A.961.961,0,0,1,600.794,284.164Zm7.921-1.42a.96.96,0,0,1,.777-1.113l.316-.057a.959.959,0,1,1,.336,1.888l-.316.057a.985.985,0,0,1-.17.014A.959.959,0,0,1,608.715,282.744Zm7.92-1.423a.96.96,0,0,1,.777-1.113l.318-.056a.971.971,0,0,1,1.113.776.96.96,0,0,1-.777,1.113l-.318.057a.974.974,0,0,1-.17.014A.961.961,0,0,1,616.635,281.321Zm8-1.433a.892.892,0,0,1,.695-1.1l.158-.029a.959.959,0,1,1,.339,1.888.975.975,0,0,1-.178.016A1.018,1.018,0,0,1,624.637,279.888ZM595.078,291.8a.962.962,0,0,1-.943.789,1.007,1.007,0,0,1-.171-.015,1.03,1.03,0,0,1-.853-1.128.892.892,0,0,1,1.035-.788l.158.028A.959.959,0,0,1,595.078,291.8Zm5.716,1.025a.971.971,0,0,1,1.113-.775l.317.057a.958.958,0,0,1-.167,1.9.876.876,0,0,1-.169-.015l-.317-.056A.96.96,0,0,1,600.794,292.826Zm18.049,3.236a.96.96,0,0,1-.943.79.977.977,0,0,1-.17-.014l-.318-.056a.96.96,0,0,1-.777-1.113.971.971,0,0,1,1.113-.777l.318.057A.96.96,0,0,1,618.843,296.062Zm-7.922-1.421a.96.96,0,0,1-.943.79.976.976,0,0,1-.17-.015l-.316-.057a.959.959,0,1,1,.336-1.888l.316.057A.96.96,0,0,1,610.921,294.641Zm15.683,2.808a.958.958,0,0,1-.943.795,1.035,1.035,0,0,1-1.026-1.138.892.892,0,0,1,1.032-.793l.157.027A.959.959,0,0,1,626.6,297.449Zm-26.59,10.86c-.723-4.8-3.353-11.344-9.488-14.169l1.433-12.023h-15l1.376,11.555c-6.846,2.491-9.431,9.519-9.968,14.637h-4.3v16.648h3.4v51.51h-3.4v16.65h40.346v-16.65h-3.4v-51.51h3.4V308.309h-4.4Zm-12.7-22.065-.787,6.6h-.851a18.111,18.111,0,0,0-1.824-.107c-.508,0-.977.048-1.455.086l-.783-6.578Zm12.973,34.585H576.945v4.128h19.933v51.51h0v4.13h3.405v8.39H568.2V380.6h23.344v-4.13H571.6v-51.51h0v-4.128h-3.4v-8.392h22.312v-4.128H572.543c.483-3.539,2.364-10.421,9.636-11.338h3.344c7.209.894,9.521,7.506,10.249,11.144h0v4.322h4.511Z" transform="translate(-564.066 -278.745)"/>
</svg>