<?xml version="1.0" ?>
<!-- Uploaded to: SVG Repo, www.svgrepo.com, Generator: SVG Repo Mixer Tools -->
<svg width="800px" height="800px" viewBox="0 0 512 512" id="Layer_1" version="1.1" xml:space="preserve" xmlns="http://www.w3.org/2000/svg" xmlns:xlink="http://www.w3.org/1999/xlink">
<style type="text/css">
	.st0{fill:#FFFFFF;}
</style>
<g>
<g>
<path class="st0" d="M352.1,142.9l-3.7-3.7c-3.4-3.4-3.4-8.8-0.1-12.2l3-3c3.4-3.4,8.8-3.4,12.2-0.1l3.7,3.7    c3.4,3.4,3.4,8.8,0.1,12.2l-3,3C360.9,146.2,355.5,146.2,352.1,142.9z"/>
<path d="M357.4,113.9c4.3,0,8.3,1.7,11.3,4.7l3.7,3.7c6.3,6.3,6.4,16.5,0.1,22.8l-3,3c-3,3.1-7.1,4.8-11.4,4.8    c-4.3,0-8.4-1.6-11.4-4.7l0,0l-3.7-3.7c-6.3-6.3-6.4-16.5-0.1-22.8l3-3C348.9,115.6,353,113.9,357.4,113.9    C357.3,113.9,357.3,113.9,357.4,113.9z M358.1,137.9c0.2,0,0.5-0.1,0.8-0.3l3-3c0.3-0.3,0.3-0.6,0.3-0.8c0-0.2-0.1-0.5-0.3-0.8    l-3.7-3.7c-0.3-0.3-0.6-0.4-0.8-0.3c-0.2,0-0.5,0.1-0.8,0.3l-3,3c-0.4,0.5-0.4,1.2,0,1.6l3.7,3.7    C357.6,137.8,357.9,137.9,358.1,137.9z"/>
</g>
<g>
<path d="M136.7,317.4c4.1,0,7.8,1.6,10.6,4.4l23.5,23.2c5.9,5.9,6,15.6,0.1,21.5l-61.7,62.7c-2.8,2.9-6.7,4.5-10.7,4.5h-0.1    c-4.1,0-7.8-1.6-10.6-4.4l-23.5-23.2c-5.9-5.9-6-15.6-0.1-21.5l61.9-62.7C128.8,319,132.6,317.4,136.7,317.4L136.7,317.4z     M98.4,419.6c0.2,0,0.5-0.1,0.8-0.3l61.9-62.7c0.4-0.5,0.4-1.1,0-1.5l-23.5-23.2c-0.3-0.3-0.6-0.3-0.8-0.3c-0.2,0-0.5,0.1-0.8,0.3    l-61.9,62.7c-0.4,0.5-0.4,1.1,0,1.5l23.5,23.2l0,0C97.8,419.5,98.2,419.6,98.4,419.6z"/>
</g>
<g>
<path d="M122.1,264.5c4.2,0,8.2,1.6,11.1,4.5l45.4,44.8c2.9,2.9,3,7.7,0.1,10.6c-2.9,2.9-7.7,3-10.6,0.1l-45.4-44.8    c-0.2-0.2-0.5-0.2-0.7-0.2c-0.5,0-1,0.3-1.4,0.7l-6.3,6.3c-0.8,0.8-0.8,1.8-0.5,2.1l90.7,89.6c0.3,0.3,1.3,0.3,2.1-0.5l6.3-6.3    c0.8-0.8,0.8-1.8,0.5-2.1L187.7,344c-2.9-2.9-3-7.7-0.1-10.6s7.7-3,10.6-0.1l25.7,25.3c6.3,6.3,6.2,16.7-0.3,23.3l-6.3,6.3    c-6.5,6.6-17,6.9-23.3,0.6l-90.7-89.6c-6.3-6.3-6.2-16.7,0.3-23.3l6.3-6.3c3.1-3.1,7.1-4.9,11.4-5.1    C121.6,264.6,121.8,264.5,122.1,264.5z"/>
</g>
<g>
<path class="st0" d="M103.4,451.1c-4.2,4.2-10.3,4.9-13.7,1.5l-9.9-9.8l-9.1-9l-9.5-9.3l-20.4-20.1c-3.4-3.4-2.8-9.5,1.4-13.7l0,0    c4.2-4.2,10.3-4.9,13.7-1.5l48.9,48.3C108.2,440.8,107.6,446.9,103.4,451.1L103.4,451.1z"/>
<path d="M50.4,379.5c4.1,0,8,1.5,10.8,4.3l48.8,48.3c3.2,3.2,4.8,7.8,4.3,12.6c-0.4,4.3-2.4,8.4-5.6,11.7    c-3.2,3.3-7.3,5.3-11.6,5.8c-4.8,0.5-9.4-1-12.7-4.2l-48.9-48.3c-6.3-6.3-5.7-17.2,1.3-24.3c3.2-3.3,7.3-5.3,11.6-5.8    C49.2,379.5,49.8,379.5,50.4,379.5z M95,447.2c0.4,0.1,1.8,0,3.1-1.4c1.4-1.4,1.5-2.8,1.4-3.1l-48.8-48.2c-0.4-0.1-1.7,0-3.1,1.4    c-1.4,1.4-1.5,2.8-1.4,3.1 M94.9,447.2L94.9,447.2L94.9,447.2z"/>
</g>
<g>
<path class="st0" d="M337.6,168.3l-15.4-15.2c-3.4-3.4-3.4-8.8-0.1-12.2l7.7-7.8c3.4-3.4,8.8-3.4,12.2-0.1l15.4,15.2    c3.4,3.4,3.4,8.8,0.1,12.2l-7.7,7.8C346.5,171.6,341,171.7,337.6,168.3z"/>
<path d="M336,123c4.3,0,8.3,1.7,11.3,4.7l15.4,15.2c6.3,6.3,6.4,16.5,0.1,22.8l-7.7,7.8c-6.3,6.3-16.5,6.4-22.8,0.1l0,0    l-15.4-15.2c-3.1-3-4.8-7.1-4.8-11.4s1.6-8.4,4.7-11.4l7.7-7.8C327.5,124.7,331.6,123,336,123C335.9,123,336,123,336,123z     M343.7,163.3c0.3,0,0.6-0.1,0.8-0.3l7.7-7.8c0.4-0.5,0.4-1.2,0-1.6l-15.4-15.2c-0.3-0.3-0.6-0.3-0.8-0.3c-0.2,0-0.5,0.1-0.8,0.3    l-7.7,7.8c-0.3,0.3-0.3,0.6-0.3,0.8c0,0.2,0.1,0.5,0.3,0.8l15.4,15.2C343.1,163.2,343.4,163.3,343.7,163.3z"/>
</g>
<g>
<path d="M447.4,35.1c1.9,0,3.8,0.7,5.3,2.2c2.9,2.9,3,7.7,0.1,10.6l-81.4,82.3c-2.9,2.9-7.7,3-10.6,0.1c-2.9-2.9-3-7.7-0.1-10.6    l81.4-82.4C443.5,35.9,445.5,35.1,447.4,35.1z"/>
</g>
<g>
<path d="M291.5,162.2c1.9,0,3.8,0.7,5.3,2.2l21,21c2.9,2.9,2.9,7.7,0,10.6s-7.7,2.9-10.6,0l-21-21c-2.9-2.9-2.9-7.7,0-10.6    C287.6,162.9,289.5,162.2,291.5,162.2z"/>
</g>
<g>
<path d="M270.8,182.9c1.9,0,3.8,0.7,5.3,2.2l21,21c2.9,2.9,2.9,7.7,0,10.6s-7.7,2.9-10.6,0l-21-21c-2.9-2.9-2.9-7.7,0-10.6    C266.9,183.6,268.9,182.9,270.8,182.9z"/>
</g>
<g>
<path d="M247.8,205.9c1.9,0,3.8,0.7,5.3,2.2l21,21c2.9,2.9,2.9,7.7,0,10.6s-7.7,2.9-10.6,0l-21-21c-2.9-2.9-2.9-7.7,0-10.6    C244,206.6,245.9,205.9,247.8,205.9z"/>
</g>
<g>
<path d="M227.1,226.5c1.9,0,3.8,0.7,5.3,2.2l21,21c2.9,2.9,2.9,7.7,0,10.6c-2.9,2.9-7.7,2.9-10.6,0l-21-21    c-2.9-2.9-2.9-7.7,0-10.6C223.3,227.3,225.2,226.5,227.1,226.5z"/>
</g>
<g>
<path d="M140.2,280l10.9,10.7c-0.1-0.2-0.1-0.4-0.1-0.5c0-0.2,0-0.5,0.3-0.8l141.3-143.5c2.9-3.1,7.9-3.2,10.9-0.2l41.6,41.2    c1.5,1.5,2.3,3.4,2.3,5.5c0,2.1-0.8,4-2.3,5.5L203.8,341.4c-0.2,0.2-0.5,0.3-0.8,0.3c-0.1,0-0.3,0-0.4-0.1l10.8,10.6    c0.2-0.2,0.5-0.4,0.7-0.7l141.3-143.5c4.2-4.3,6.5-10,6.5-16c0-6-2.3-11.6-6.5-15.8l-41.6-41.2c-4.3-4.3-10-6.4-15.6-6.4    c-5.8,0-11.6,2.2-16,6.8L141.1,279C140.8,279.3,140.5,279.7,140.2,280z"/>
</g>
</g>
</svg>