<?xml version="1.0" ?>
<!-- Uploaded to: SVG Repo, www.svgrepo.com, Generator: SVG Repo Mixer Tools -->
<svg fill="#000000" width="800px" height="800px" viewBox="0 0 32 32" xmlns="http://www.w3.org/2000/svg">
<title/>
<g data-name="Layer 9" id="Layer_9">
<path d="M22,2H10a3,3,0,0,0,0,6V24.78s0,.1,0,.15,0,0,0,.07a1.43,1.43,0,0,0,0,.22A5.21,5.21,0,0,0,15.22,30h1.56A5.22,5.22,0,0,0,22,24.78V8a3,3,0,0,0,0-6ZM20,24.78A3.22,3.22,0,0,1,16.78,28H15.22a3.22,3.22,0,0,1-3-2H13a1,1,0,0,0,0-2H12V23h1a1,1,0,0,0,0-2H12V20h4a1,1,0,0,0,0-2H12V17h1a1,1,0,0,0,0-2H12V14h1a1,1,0,0,0,0-2H12V11h4a1,1,0,0,0,0-2H12V8h8ZM22,6H10a1,1,0,0,1,0-2H22a1,1,0,0,1,0,2Z"/>
</g>
</svg>