<?xml version="1.0" encoding="iso-8859-1"?>
<!-- Uploaded to: SVG Repo, www.svgrepo.com, Generator: SVG Repo Mixer Tools -->
<svg fill="#000000" height="800px" width="800px" version="1.1" id="Layer_1" xmlns="http://www.w3.org/2000/svg" xmlns:xlink="http://www.w3.org/1999/xlink" 
	 viewBox="0 0 511.999 511.999" xml:space="preserve">
<g>
	<g>
		<g>
			<path d="M220.052,195.449L61.751,353.751c-2.766,2.766-2.127,7.43,1.297,9.323c107.076,59.222,225.632-59.082,166.331-166.324
				C227.484,193.323,222.821,192.681,220.052,195.449z"/>
			<path d="M196.986,159.059c-47.952-36.99-117.265-33.517-161.204,10.42c-43.938,43.939-47.41,113.252-10.42,161.204
				c2.179,2.824,6.338,3.113,8.86,0.591l163.355-163.355C200.098,165.396,199.811,161.238,196.986,159.059z"/>
			<path d="M329.84,148.939c-3.426,1.894-4.069,6.558-1.301,9.327l158.302,158.301c2.766,2.766,7.43,2.127,9.323-1.297
				C555.386,208.194,437.082,89.639,329.84,148.939z"/>
			<path d="M301.01,180.741c-2.522-2.522-6.681-2.235-8.86,0.591c-36.99,47.952-33.517,117.265,10.42,161.204
				c43.939,43.939,113.252,47.41,161.204,10.42c2.825-2.179,3.113-6.338,0.591-8.86L301.01,180.741z"/>
		</g>
	</g>
</g>
</svg>